<?xml version="1.0" standalone="no"?>
<!DOCTYPE svg PUBLIC "-//W3C//DTD SVG 20010904//EN"
 "http://www.w3.org/TR/2001/REC-SVG-20010904/DTD/svg10.dtd">
<svg version="1.0" xmlns="http://www.w3.org/2000/svg"
 width="500.000000pt" height="500.000000pt" viewBox="0 0 500.000000 500.000000"
 preserveAspectRatio="xMidYMid meet">

<g transform="translate(0.000000,500.000000) scale(0.100000,-0.100000)"
fill="#000000" stroke="none">
<path d="M3055 3811 c-53 -14 -113 -50 -141 -85 -55 -69 -67 -117 -74 -296 -5
-144 -7 -161 -18 -136 -39 89 -187 223 -332 300 -87 46 -265 114 -369 141 -96
25 -330 56 -426 57 -100 0 -151 -15 -198 -60 -79 -75 -97 -145 -104 -409 l-6
-203 -59 0 c-69 0 -102 -15 -149 -67 l-34 -38 -88 3 c-80 3 -92 0 -139 -25
-101 -55 -138 -141 -138 -320 0 -151 19 -228 72 -288 64 -72 117 -98 213 -103
l81 -4 24 -42 c35 -62 137 -193 155 -200 9 -3 29 -6 45 -6 l28 0 4 -292 c4
-244 7 -302 22 -346 21 -64 76 -128 131 -153 102 -47 453 -4 715 86 137 48
254 109 362 190 92 69 139 120 182 195 l26 45 0 -146 c0 -139 1 -148 28 -200
32 -65 100 -119 181 -146 50 -16 93 -18 401 -18 363 0 403 4 500 49 149 68
210 239 137 382 -30 59 -58 86 -112 109 -90 38 -142 47 -325 53 l-185 7 -3 92
-3 92 58 3 c65 3 61 -4 47 96 -4 35 -10 49 -15 40 -7 -10 -9 -10 -9 0 0 7 -14
12 -37 12 l-38 0 -1 410 -1 410 78 0 c43 0 81 -5 84 -10 6 -9 24 -258 25 -338
l0 -23 28 20 c15 11 38 29 51 39 l24 19 -11 129 c-14 154 -31 226 -62 259 -22
23 -30 25 -127 25 l-103 0 0 158 c0 189 -12 280 -45 347 -30 62 -96 130 -156
160 -50 26 -146 39 -194 26z m164 -116 c43 -22 91 -72 109 -112 16 -35 17
-115 20 -947 l3 -909 251 5 c138 3 266 1 283 -3 87 -24 138 -93 137 -185 -1
-81 -32 -131 -106 -169 l-60 -30 -395 0 c-454 0 -449 -1 -499 84 l-27 46 -3
1029 c-3 1131 -4 1102 57 1160 57 54 159 69 230 31z m-1209 -29 c91 -19 179
-39 195 -44 58 -18 201 -91 291 -151 132 -87 210 -196 269 -381 26 -79 28
-103 37 -355 14 -349 -1 -703 -32 -815 -26 -92 -86 -208 -143 -277 -75 -92
-266 -209 -427 -261 -120 -40 -327 -74 -475 -79 -139 -5 -140 -5 -163 20 -15
16 -32 59 -48 123 l-24 99 0 971 c0 929 1 974 19 1047 22 84 44 124 75 138 43
19 255 1 426 -35z m-642 -682 c20 -6 22 -12 22 -87 l0 -81 -44 46 c-24 26 -55
54 -69 63 -30 20 -26 40 11 54 33 12 50 13 80 5z m-278 -112 c0 -4 -5 -23 -10
-42 -16 -54 -13 -315 5 -380 8 -30 12 -56 10 -58 -2 -3 -20 -1 -39 2 -41 8
-91 46 -110 85 -36 73 -46 279 -17 342 18 37 59 58 114 59 26 0 47 -3 47 -8z
m171 -89 c22 -20 52 -60 66 -87 28 -54 26 -38 37 -366 l3 -104 -40 44 c-89
100 -136 253 -137 448 0 119 6 124 71 65z"/>
<path d="M1910 2504 l0 -784 50 0 c128 0 252 51 330 137 99 108 95 80 98 622
3 538 3 542 -71 633 -52 65 -151 133 -220 152 -29 8 -82 16 -119 19 l-68 5 0
-784z m223 638 c34 -16 86 -51 116 -78 50 -46 54 -53 58 -104 l5 -55 -39 38
-39 37 4 -442 c2 -244 6 -445 8 -447 2 -3 17 8 33 23 24 23 29 25 35 11 21
-56 -5 -127 -65 -179 -52 -44 -163 -101 -178 -91 -11 6 -17 1315 -6 1315 3 0
33 -13 68 -28z"/>
<path d="M3702 2535 c-18 -15 -46 -50 -61 -76 -25 -45 -27 -53 -19 -111 10
-81 2 -118 -29 -144 -22 -19 -24 -27 -18 -62 3 -22 12 -48 19 -58 12 -16 15
-16 50 5 20 13 44 34 52 46 19 29 46 266 42 361 l-3 67 -33 -28z"/>
</g>
</svg>
